<?xml version="1.0" encoding="UTF-8" standalone="no"?>
<!DOCTYPE svg PUBLIC "-//W3C//DTD SVG 1.1//EN"
 "http://www.w3.org/Graphics/SVG/1.1/DTD/svg11.dtd">
<!-- Generated by graphviz version 9.0.0 (0)
 -->
<!-- Title: anphon_modes Pages: 1 -->
<svg width="554pt" height="252pt"
 viewBox="0.00 0.00 554.21 252.00" xmlns="http://www.w3.org/2000/svg" xmlns:xlink="http://www.w3.org/1999/xlink">
<g id="graph0" class="graph" transform="scale(1 1) rotate(0) translate(4 248)">
<title>anphon_modes</title>
<polygon fill="white" stroke="none" points="-4,4 -4,-248 550.21,-248 550.21,4 -4,4"/>
<!-- fcs -->
<g id="node1" class="node">
<title>fcs</title>
<polygon fill="#ffffff" stroke="#777777" points="81.6,-140 0,-140 0,-104 87.6,-104 87.6,-134 81.6,-140"/>
<polyline fill="none" stroke="#777777" points="81.6,-140 81.6,-134"/>
<polyline fill="none" stroke="#777777" points="87.6,-134 81.6,-134"/>
<text text-anchor="start" x="10.8" y="-122.6" font-family="Hiragino Sans" font-weight="bold" font-size="12.00">PREFIX.h5</text>
<text text-anchor="start" x="29.18" y="-112.5" font-family="Hiragino Sans" font-size="10.00">力定数</text>
</g>
<!-- q -->
<g id="node2" class="node">
<title>q</title>
<polygon fill="#fce9e9" stroke="#c53030" points="181.23,-150.38 123.6,-122 181.23,-93.62 238.86,-122 181.23,-150.38"/>
<text text-anchor="start" x="169.23" y="-123.35" font-family="Hiragino Sans" font-size="12.00">何を</text>
<text text-anchor="start" x="153.86" y="-110.6" font-family="Hiragino Sans" font-size="12.00">計算する?</text>
</g>
<!-- fcs&#45;&gt;q -->
<g id="edge1" class="edge">
<title>fcs&#45;&gt;q</title>
<path fill="none" stroke="#444444" d="M88.02,-122C96.1,-122 104.71,-122 113.3,-122"/>
<polygon fill="#444444" stroke="#444444" points="113.07,-124.8 121.07,-122 113.07,-119.2 113.07,-124.8"/>
</g>
<!-- ph -->
<g id="node3" class="node">
<title>ph</title>
<path fill="#ddf2e3" stroke="#2f855a" stroke-width="1.6" d="M534.21,-244C534.21,-244 286.86,-244 286.86,-244 280.86,-244 274.86,-238 274.86,-232 274.86,-232 274.86,-220 274.86,-220 274.86,-214 280.86,-208 286.86,-208 286.86,-208 534.21,-208 534.21,-208 540.21,-208 546.21,-214 546.21,-220 546.21,-220 546.21,-232 546.21,-232 546.21,-238 540.21,-244 534.21,-244"/>
<text text-anchor="start" x="335.91" y="-226.6" font-family="Hiragino Sans" font-weight="bold" font-size="12.00">分散関係, DOS, 熱力学関数</text>
<text text-anchor="start" x="285.66" y="-216.5" font-family="Courier,monospace" font-size="10.00">MODE = phonons</text>
<text text-anchor="start" x="359.16" y="-216.5" font-family="Hiragino Sans" font-size="10.00"> &#160;&#160;&#160;FC2 &#160;(グリュナイゼン定数は + FC3)</text>
</g>
<!-- q&#45;&gt;ph -->
<g id="edge2" class="edge">
<title>q&#45;&gt;ph</title>
<path fill="none" stroke="#444444" d="M199.71,-141.59C216.98,-159.67 245.07,-185.78 274.86,-200 278,-201.5 281.22,-202.91 284.5,-204.24"/>
<polygon fill="#444444" stroke="#444444" points="283.42,-206.83 291.9,-207.04 285.41,-201.59 283.42,-206.83"/>
</g>
<!-- ka -->
<g id="node4" class="node">
<title>ka</title>
<path fill="#ddf2e3" stroke="#2f855a" stroke-width="1.6" d="M530.46,-192C530.46,-192 290.61,-192 290.61,-192 284.61,-192 278.61,-186 278.61,-180 278.61,-180 278.61,-168 278.61,-168 278.61,-162 284.61,-156 290.61,-156 290.61,-156 530.46,-156 530.46,-156 536.46,-156 542.46,-162 542.46,-168 542.46,-168 542.46,-180 542.46,-180 542.46,-186 536.46,-192 530.46,-192"/>
<text text-anchor="start" x="374.54" y="-174.6" font-family="Hiragino Sans" font-weight="bold" font-size="12.00">格子熱伝導率</text>
<text text-anchor="start" x="289.41" y="-164.5" font-family="Courier,monospace" font-size="10.00">MODE = kappa</text>
<text text-anchor="start" x="352.41" y="-164.5" font-family="Hiragino Sans" font-size="10.00"> &#160;&#160;&#160;FC2, FC3 &#160;(4フォノン散乱は + FC4)</text>
</g>
<!-- q&#45;&gt;ka -->
<g id="edge3" class="edge">
<title>q&#45;&gt;ka</title>
<path fill="none" stroke="#444444" d="M217.68,-132.69C234.86,-137.69 255.84,-143.5 274.86,-148 282.94,-149.91 291.32,-151.78 299.77,-153.59"/>
<polygon fill="#444444" stroke="#444444" points="299.07,-156.31 307.47,-155.22 300.22,-150.83 299.07,-156.31"/>
</g>
<!-- se -->
<g id="node5" class="node">
<title>se</title>
<path fill="#ddf2e3" stroke="#2f855a" stroke-width="1.6" d="M500.84,-140C500.84,-140 320.24,-140 320.24,-140 314.24,-140 308.24,-134 308.24,-128 308.24,-128 308.24,-116 308.24,-116 308.24,-110 314.24,-104 320.24,-104 320.24,-104 500.84,-104 500.84,-104 506.84,-104 512.84,-110 512.84,-116 512.84,-116 512.84,-128 512.84,-128 512.84,-134 506.84,-140 500.84,-140"/>
<text text-anchor="start" x="319.04" y="-122.6" font-family="Hiragino Sans" font-weight="bold" font-size="12.00">指定した q 点の線幅・スペクトル</text>
<text text-anchor="start" x="337.04" y="-112.5" font-family="Courier,monospace" font-size="10.00">MODE = selfenergy</text>
<text text-anchor="start" x="426.29" y="-112.5" font-family="Hiragino Sans" font-size="10.00"> &#160;&#160;&#160;FC2, FC3</text>
</g>
<!-- q&#45;&gt;se -->
<g id="edge4" class="edge">
<title>q&#45;&gt;se</title>
<path fill="none" stroke="#444444" d="M239.88,-122C257.79,-122 278.17,-122 298.44,-122"/>
<polygon fill="#444444" stroke="#444444" points="298.22,-124.8 306.22,-122 298.22,-119.2 298.22,-124.8"/>
</g>
<!-- sc -->
<g id="node6" class="node">
<title>sc</title>
<path fill="#ddf2e3" stroke="#2f855a" stroke-width="1.6" d="M505.34,-88C505.34,-88 315.74,-88 315.74,-88 309.74,-88 303.74,-82 303.74,-76 303.74,-76 303.74,-64 303.74,-64 303.74,-58 309.74,-52 315.74,-52 315.74,-52 505.34,-52 505.34,-52 511.34,-52 517.34,-58 517.34,-64 517.34,-64 517.34,-76 517.34,-76 517.34,-82 511.34,-88 505.34,-88"/>
<text text-anchor="start" x="314.54" y="-70.6" font-family="Hiragino Sans" font-weight="bold" font-size="12.00">有限温度のフォノン (強い非調和性)</text>
<text text-anchor="start" x="340.04" y="-60.5" font-family="Courier,monospace" font-size="10.00">MODE = SCPH</text>
<text text-anchor="start" x="397.79" y="-60.5" font-family="Hiragino Sans" font-size="10.00"> &#160;&#160;&#160;FC2, FC3, FC4</text>
</g>
<!-- q&#45;&gt;sc -->
<g id="edge5" class="edge">
<title>q&#45;&gt;sc</title>
<path fill="none" stroke="#444444" d="M217.68,-111.31C234.86,-106.31 255.84,-100.5 274.86,-96 282.94,-94.09 291.32,-92.22 299.77,-90.41"/>
<polygon fill="#444444" stroke="#444444" points="300.22,-93.17 307.47,-88.78 299.07,-87.69 300.22,-93.17"/>
</g>
<!-- qh -->
<g id="node7" class="node">
<title>qh</title>
<path fill="#ddf2e3" stroke="#2f855a" stroke-width="1.6" d="M477.21,-36C477.21,-36 343.86,-36 343.86,-36 337.86,-36 331.86,-30 331.86,-24 331.86,-24 331.86,-12 331.86,-12 331.86,-6 337.86,0 343.86,0 343.86,0 477.21,0 477.21,0 483.21,0 489.21,-6 489.21,-12 489.21,-12 489.21,-24 489.21,-24 489.21,-30 483.21,-36 477.21,-36"/>
<text text-anchor="start" x="347.16" y="-18.6" font-family="Hiragino Sans" font-weight="bold" font-size="12.00">熱膨張, 構造の温度変化</text>
<text text-anchor="start" x="342.66" y="-8.5" font-family="Courier,monospace" font-size="10.00">MODE = QHA</text>
<text text-anchor="start" x="395.16" y="-8.5" font-family="Hiragino Sans" font-size="10.00"> &#160;&#160;&#160;FC2, FC3, FC4</text>
</g>
<!-- q&#45;&gt;qh -->
<g id="edge6" class="edge">
<title>q&#45;&gt;qh</title>
<path fill="none" stroke="#444444" d="M199.71,-102.41C216.98,-84.33 245.07,-58.22 274.86,-44 289.64,-36.95 306.19,-31.81 322.51,-28.06"/>
<polygon fill="#444444" stroke="#444444" points="322.82,-30.86 330.05,-26.44 321.64,-25.38 322.82,-30.86"/>
</g>
</g>
</svg>
